<svg xmlns="http://www.w3.org/2000/svg" xmlns:xlink="http://www.w3.org/1999/xlink" width="70" zoomAndPan="magnify" viewBox="0 0 52.5 52.499999" height="70" preserveAspectRatio="xMidYMid meet" version="1.0"><defs><g/></defs><g fill="#ff0000" fill-opacity="1"><g transform="translate(8.578889, 24.477466)"><g><path d="M 13.46875 -10.769531 L 13.46875 -12.660156 C 13.46875 -13.378906 13.542969 -13.976562 13.578125 -14.335938 L 11.019531 -14.335938 C 11.074219 -13.976562 11.128906 -13.378906 11.128906 -12.660156 L 11.128906 -10.769531 L 6.859375 -10.769531 L 6.859375 -12.535156 C 6.859375 -13.253906 6.914062 -13.832031 6.96875 -14.171875 L 4.414062 -14.171875 C 4.449219 -13.832031 4.519531 -13.238281 4.519531 -12.550781 L 4.519531 -10.769531 L 2.988281 -10.769531 C 2.089844 -10.769531 1.367188 -10.878906 1.042969 -10.929688 L 1.042969 -8.480469 C 1.441406 -8.519531 2.089844 -8.554688 2.988281 -8.554688 L 4.519531 -8.554688 L 4.519531 -6.105469 C 4.519531 -5.292969 4.464844 -4.574219 4.414062 -4.214844 L 6.933594 -4.214844 C 6.914062 -4.574219 6.859375 -5.3125 6.859375 -6.105469 L 6.859375 -8.554688 L 11.128906 -8.554688 L 11.128906 -7.871094 C 11.128906 -3.457031 9.597656 -1.890625 6.121094 -0.683594 L 8.050781 1.132812 C 12.390625 -0.773438 13.46875 -3.492188 13.46875 -7.960938 L 13.46875 -8.554688 L 14.804688 -8.554688 C 15.757812 -8.554688 16.386719 -8.535156 16.785156 -8.5 L 16.785156 -10.894531 C 16.296875 -10.804688 15.757812 -10.769531 14.804688 -10.769531 Z M 13.46875 -10.769531 "/></g></g></g><g fill="#ff0000" fill-opacity="1"><g transform="translate(26.587019, 24.477466)"><g><path d="M 4.339844 -13.6875 L 2.648438 -11.886719 C 3.960938 -10.96875 6.214844 -9.003906 7.148438 -7.996094 L 8.984375 -9.886719 C 7.941406 -10.96875 5.601562 -12.839844 4.339844 -13.6875 Z M 2.089844 -1.691406 L 3.601562 0.683594 C 6.140625 0.253906 8.464844 -0.757812 10.28125 -1.855469 C 13.183594 -3.601562 15.578125 -6.085938 16.945312 -8.519531 L 15.542969 -11.058594 C 14.40625 -8.625 12.046875 -5.871094 8.984375 -4.050781 C 7.238281 -3.007812 4.898438 -2.089844 2.089844 -1.691406 Z M 2.089844 -1.691406 "/></g></g></g><g fill="#00ffff" fill-opacity="1"><g transform="translate(7.903532, 24.477466)"><g><path d="M 13.46875 -10.769531 L 13.46875 -12.660156 C 13.46875 -13.378906 13.542969 -13.976562 13.578125 -14.335938 L 11.019531 -14.335938 C 11.074219 -13.976562 11.128906 -13.378906 11.128906 -12.660156 L 11.128906 -10.769531 L 6.859375 -10.769531 L 6.859375 -12.535156 C 6.859375 -13.253906 6.914062 -13.832031 6.96875 -14.171875 L 4.414062 -14.171875 C 4.449219 -13.832031 4.519531 -13.238281 4.519531 -12.550781 L 4.519531 -10.769531 L 2.988281 -10.769531 C 2.089844 -10.769531 1.367188 -10.878906 1.042969 -10.929688 L 1.042969 -8.480469 C 1.441406 -8.519531 2.089844 -8.554688 2.988281 -8.554688 L 4.519531 -8.554688 L 4.519531 -6.105469 C 4.519531 -5.292969 4.464844 -4.574219 4.414062 -4.214844 L 6.933594 -4.214844 C 6.914062 -4.574219 6.859375 -5.3125 6.859375 -6.105469 L 6.859375 -8.554688 L 11.128906 -8.554688 L 11.128906 -7.871094 C 11.128906 -3.457031 9.597656 -1.890625 6.121094 -0.683594 L 8.050781 1.132812 C 12.390625 -0.773438 13.46875 -3.492188 13.46875 -7.960938 L 13.46875 -8.554688 L 14.804688 -8.554688 C 15.757812 -8.554688 16.386719 -8.535156 16.785156 -8.5 L 16.785156 -10.894531 C 16.296875 -10.804688 15.757812 -10.769531 14.804688 -10.769531 Z M 13.46875 -10.769531 "/></g></g></g><g fill="#00ffff" fill-opacity="1"><g transform="translate(25.911661, 24.477466)"><g><path d="M 4.339844 -13.6875 L 2.648438 -11.886719 C 3.960938 -10.96875 6.214844 -9.003906 7.148438 -7.996094 L 8.984375 -9.886719 C 7.941406 -10.96875 5.601562 -12.839844 4.339844 -13.6875 Z M 2.089844 -1.691406 L 3.601562 0.683594 C 6.140625 0.253906 8.464844 -0.757812 10.28125 -1.855469 C 13.183594 -3.601562 15.578125 -6.085938 16.945312 -8.519531 L 15.542969 -11.058594 C 14.40625 -8.625 12.046875 -5.871094 8.984375 -4.050781 C 7.238281 -3.007812 4.898438 -2.089844 2.089844 -1.691406 Z M 2.089844 -1.691406 "/></g></g></g><g fill="#201d1d" fill-opacity="1"><g transform="translate(8.241211, 24.477466)"><g><path d="M 13.46875 -10.769531 L 13.46875 -12.660156 C 13.46875 -13.378906 13.542969 -13.976562 13.578125 -14.335938 L 11.019531 -14.335938 C 11.074219 -13.976562 11.128906 -13.378906 11.128906 -12.660156 L 11.128906 -10.769531 L 6.859375 -10.769531 L 6.859375 -12.535156 C 6.859375 -13.253906 6.914062 -13.832031 6.96875 -14.171875 L 4.414062 -14.171875 C 4.449219 -13.832031 4.519531 -13.238281 4.519531 -12.550781 L 4.519531 -10.769531 L 2.988281 -10.769531 C 2.089844 -10.769531 1.367188 -10.878906 1.042969 -10.929688 L 1.042969 -8.480469 C 1.441406 -8.519531 2.089844 -8.554688 2.988281 -8.554688 L 4.519531 -8.554688 L 4.519531 -6.105469 C 4.519531 -5.292969 4.464844 -4.574219 4.414062 -4.214844 L 6.933594 -4.214844 C 6.914062 -4.574219 6.859375 -5.3125 6.859375 -6.105469 L 6.859375 -8.554688 L 11.128906 -8.554688 L 11.128906 -7.871094 C 11.128906 -3.457031 9.597656 -1.890625 6.121094 -0.683594 L 8.050781 1.132812 C 12.390625 -0.773438 13.46875 -3.492188 13.46875 -7.960938 L 13.46875 -8.554688 L 14.804688 -8.554688 C 15.757812 -8.554688 16.386719 -8.535156 16.785156 -8.5 L 16.785156 -10.894531 C 16.296875 -10.804688 15.757812 -10.769531 14.804688 -10.769531 Z M 13.46875 -10.769531 "/></g></g></g><g fill="#201d1d" fill-opacity="1"><g transform="translate(26.24934, 24.477466)"><g><path d="M 4.339844 -13.6875 L 2.648438 -11.886719 C 3.960938 -10.96875 6.214844 -9.003906 7.148438 -7.996094 L 8.984375 -9.886719 C 7.941406 -10.96875 5.601562 -12.839844 4.339844 -13.6875 Z M 2.089844 -1.691406 L 3.601562 0.683594 C 6.140625 0.253906 8.464844 -0.757812 10.28125 -1.855469 C 13.183594 -3.601562 15.578125 -6.085938 16.945312 -8.519531 L 15.542969 -11.058594 C 14.40625 -8.625 12.046875 -5.871094 8.984375 -4.050781 C 7.238281 -3.007812 4.898438 -2.089844 2.089844 -1.691406 Z M 2.089844 -1.691406 "/></g></g></g><g fill="#ff0000" fill-opacity="1"><g transform="translate(8.578889, 42.400379)"><g><path d="M 12.785156 -11.5625 C 13.417969 -11.5625 14.101562 -11.527344 14.730469 -11.488281 L 14.730469 -13.8125 C 14.117188 -13.722656 13.398438 -13.6875 12.785156 -13.6875 L 5.546875 -13.6875 C 4.953125 -13.6875 4.214844 -13.722656 3.636719 -13.8125 L 3.636719 -11.488281 C 4.179688 -11.527344 4.933594 -11.5625 5.566406 -11.5625 Z M 3.257812 -9.09375 C 2.703125 -9.09375 2.070312 -9.148438 1.53125 -9.203125 L 1.53125 -6.84375 C 2.035156 -6.878906 2.738281 -6.914062 3.257812 -6.914062 L 8.210938 -6.914062 C 8.140625 -5.402344 7.832031 -4.050781 7.09375 -2.933594 C 6.375 -1.890625 5.113281 -0.847656 3.835938 -0.359375 L 5.941406 1.171875 C 7.546875 0.359375 8.933594 -1.042969 9.5625 -2.285156 C 10.210938 -3.546875 10.605469 -5.058594 10.714844 -6.914062 L 15.054688 -6.914062 C 15.558594 -6.914062 16.242188 -6.898438 16.695312 -6.859375 L 16.695312 -9.203125 C 16.207031 -9.128906 15.433594 -9.09375 15.054688 -9.09375 Z M 3.257812 -9.09375 "/></g></g></g><g fill="#ff0000" fill-opacity="1"><g transform="translate(26.587019, 42.400379)"><g><path d="M 12.859375 -11.292969 C 11.957031 -10.121094 10.066406 -8.625 8.230469 -7.546875 C 6.808594 -6.71875 4.195312 -5.601562 1.871094 -5.113281 L 3.078125 -3.027344 C 4.59375 -3.441406 6.574219 -4.230469 8.15625 -4.988281 L 8.15625 -0.359375 C 8.15625 0.269531 8.121094 1.222656 8.066406 1.585938 L 10.734375 1.585938 C 10.625 1.222656 10.605469 0.269531 10.605469 -0.359375 L 10.605469 -6.355469 C 12.246094 -7.417969 13.8125 -8.679688 14.660156 -9.617188 Z M 12.859375 -11.292969 "/></g></g></g><g fill="#00ffff" fill-opacity="1"><g transform="translate(7.903532, 42.400379)"><g><path d="M 12.785156 -11.5625 C 13.417969 -11.5625 14.101562 -11.527344 14.730469 -11.488281 L 14.730469 -13.8125 C 14.117188 -13.722656 13.398438 -13.6875 12.785156 -13.6875 L 5.546875 -13.6875 C 4.953125 -13.6875 4.214844 -13.722656 3.636719 -13.8125 L 3.636719 -11.488281 C 4.179688 -11.527344 4.933594 -11.5625 5.566406 -11.5625 Z M 3.257812 -9.09375 C 2.703125 -9.09375 2.070312 -9.148438 1.53125 -9.203125 L 1.53125 -6.84375 C 2.035156 -6.878906 2.738281 -6.914062 3.257812 -6.914062 L 8.210938 -6.914062 C 8.140625 -5.402344 7.832031 -4.050781 7.09375 -2.933594 C 6.375 -1.890625 5.113281 -0.847656 3.835938 -0.359375 L 5.941406 1.171875 C 7.546875 0.359375 8.933594 -1.042969 9.5625 -2.285156 C 10.210938 -3.546875 10.605469 -5.058594 10.714844 -6.914062 L 15.054688 -6.914062 C 15.558594 -6.914062 16.242188 -6.898438 16.695312 -6.859375 L 16.695312 -9.203125 C 16.207031 -9.128906 15.433594 -9.09375 15.054688 -9.09375 Z M 3.257812 -9.09375 "/></g></g></g><g fill="#00ffff" fill-opacity="1"><g transform="translate(25.911661, 42.400379)"><g><path d="M 12.859375 -11.292969 C 11.957031 -10.121094 10.066406 -8.625 8.230469 -7.546875 C 6.808594 -6.71875 4.195312 -5.601562 1.871094 -5.113281 L 3.078125 -3.027344 C 4.59375 -3.441406 6.574219 -4.230469 8.15625 -4.988281 L 8.15625 -0.359375 C 8.15625 0.269531 8.121094 1.222656 8.066406 1.585938 L 10.734375 1.585938 C 10.625 1.222656 10.605469 0.269531 10.605469 -0.359375 L 10.605469 -6.355469 C 12.246094 -7.417969 13.8125 -8.679688 14.660156 -9.617188 Z M 12.859375 -11.292969 "/></g></g></g><g fill="#201d1d" fill-opacity="1"><g transform="translate(8.241211, 42.400379)"><g><path d="M 12.785156 -11.5625 C 13.417969 -11.5625 14.101562 -11.527344 14.730469 -11.488281 L 14.730469 -13.8125 C 14.117188 -13.722656 13.398438 -13.6875 12.785156 -13.6875 L 5.546875 -13.6875 C 4.953125 -13.6875 4.214844 -13.722656 3.636719 -13.8125 L 3.636719 -11.488281 C 4.179688 -11.527344 4.933594 -11.5625 5.566406 -11.5625 Z M 3.257812 -9.09375 C 2.703125 -9.09375 2.070312 -9.148438 1.53125 -9.203125 L 1.53125 -6.84375 C 2.035156 -6.878906 2.738281 -6.914062 3.257812 -6.914062 L 8.210938 -6.914062 C 8.140625 -5.402344 7.832031 -4.050781 7.09375 -2.933594 C 6.375 -1.890625 5.113281 -0.847656 3.835938 -0.359375 L 5.941406 1.171875 C 7.546875 0.359375 8.933594 -1.042969 9.5625 -2.285156 C 10.210938 -3.546875 10.605469 -5.058594 10.714844 -6.914062 L 15.054688 -6.914062 C 15.558594 -6.914062 16.242188 -6.898438 16.695312 -6.859375 L 16.695312 -9.203125 C 16.207031 -9.128906 15.433594 -9.09375 15.054688 -9.09375 Z M 3.257812 -9.09375 "/></g></g></g><g fill="#201d1d" fill-opacity="1"><g transform="translate(26.24934, 42.400379)"><g><path d="M 12.859375 -11.292969 C 11.957031 -10.121094 10.066406 -8.625 8.230469 -7.546875 C 6.808594 -6.71875 4.195312 -5.601562 1.871094 -5.113281 L 3.078125 -3.027344 C 4.59375 -3.441406 6.574219 -4.230469 8.15625 -4.988281 L 8.15625 -0.359375 C 8.15625 0.269531 8.121094 1.222656 8.066406 1.585938 L 10.734375 1.585938 C 10.625 1.222656 10.605469 0.269531 10.605469 -0.359375 L 10.605469 -6.355469 C 12.246094 -7.417969 13.8125 -8.679688 14.660156 -9.617188 Z M 12.859375 -11.292969 "/></g></g></g></svg>