<svg xmlns="http://www.w3.org/2000/svg" xmlns:xlink="http://www.w3.org/1999/xlink" width="500" zoomAndPan="magnify" viewBox="0 0 375 374.999991" height="500" preserveAspectRatio="xMidYMid meet" version="1.0"><defs><g/></defs><g fill="#ff0000" fill-opacity="1"><g transform="translate(69.48216, 251.160566)"><g><path d="M 74.835938 -2.40625 C 89.40625 -8.203125 99.167969 -20.511719 100.722656 -34.941406 C 101.710938 -44.84375 98.882812 -53.898438 92.800781 -60.828125 C 86.574219 -67.902344 77.804688 -72.003906 67.761719 -72.429688 C 66.0625 -72.570312 64.648438 -71.15625 64.507812 -69.457031 C 64.367188 -67.761719 65.640625 -66.347656 67.335938 -66.347656 L 67.476562 -66.347656 C 75.964844 -65.921875 83.320312 -62.667969 88.273438 -57.011719 C 93.082031 -51.210938 95.347656 -43.570312 94.640625 -35.507812 C 93.226562 -23.339844 85.019531 -13.15625 72.570312 -8.203125 C 56.867188 -1.980469 39.042969 -5.800781 24.898438 -17.964844 L 25.039062 -17.964844 C 23.625 -19.097656 21.644531 -18.957031 20.652344 -17.824219 C 19.378906 -16.550781 19.523438 -14.570312 20.9375 -13.296875 C 31.546875 -4.101562 44.136719 0.847656 57.011719 0.847656 C 63.09375 0.847656 69.175781 -0.28125 74.835938 -2.40625 Z M 56.160156 -113.453125 C 66.769531 -114.304688 75.542969 -111.613281 81.90625 -105.53125 C 87 -100.4375 90.394531 -92.660156 89.972656 -86.71875 C 89.972656 -85.160156 91.246094 -83.746094 92.941406 -83.605469 C 94.640625 -83.464844 96.054688 -84.738281 96.195312 -86.433594 C 96.476562 -94.074219 92.515625 -103.550781 86.152344 -109.917969 C 78.511719 -117.273438 68.042969 -120.527344 55.738281 -119.535156 C 38.761719 -118.265625 23.90625 -103.410156 22.066406 -85.726562 C 21.359375 -78.796875 21.503906 -55.59375 54.605469 -45.550781 C 55.03125 -45.550781 55.3125 -45.410156 55.59375 -45.410156 C 57.011719 -45.410156 58.28125 -46.257812 58.566406 -47.671875 C 59.132812 -49.230469 58.140625 -50.925781 56.585938 -51.351562 C 28.574219 -59.699219 27.445312 -77.945312 28.152344 -85.160156 C 29.847656 -100.015625 42.015625 -112.464844 56.160156 -113.453125 Z M 56.160156 -113.453125 "/></g></g></g><g fill="#00ffff" fill-opacity="1"><g transform="translate(64.177126, 251.160566)"><g><path d="M 74.835938 -2.40625 C 89.40625 -8.203125 99.167969 -20.511719 100.722656 -34.941406 C 101.710938 -44.84375 98.882812 -53.898438 92.800781 -60.828125 C 86.574219 -67.902344 77.804688 -72.003906 67.761719 -72.429688 C 66.0625 -72.570312 64.648438 -71.15625 64.507812 -69.457031 C 64.367188 -67.761719 65.640625 -66.347656 67.335938 -66.347656 L 67.476562 -66.347656 C 75.964844 -65.921875 83.320312 -62.667969 88.273438 -57.011719 C 93.082031 -51.210938 95.347656 -43.570312 94.640625 -35.507812 C 93.226562 -23.339844 85.019531 -13.15625 72.570312 -8.203125 C 56.867188 -1.980469 39.042969 -5.800781 24.898438 -17.964844 L 25.039062 -17.964844 C 23.625 -19.097656 21.644531 -18.957031 20.652344 -17.824219 C 19.378906 -16.550781 19.523438 -14.570312 20.9375 -13.296875 C 31.546875 -4.101562 44.136719 0.847656 57.011719 0.847656 C 63.09375 0.847656 69.175781 -0.28125 74.835938 -2.40625 Z M 56.160156 -113.453125 C 66.769531 -114.304688 75.542969 -111.613281 81.90625 -105.53125 C 87 -100.4375 90.394531 -92.660156 89.972656 -86.71875 C 89.972656 -85.160156 91.246094 -83.746094 92.941406 -83.605469 C 94.640625 -83.464844 96.054688 -84.738281 96.195312 -86.433594 C 96.476562 -94.074219 92.515625 -103.550781 86.152344 -109.917969 C 78.511719 -117.273438 68.042969 -120.527344 55.738281 -119.535156 C 38.761719 -118.265625 23.90625 -103.410156 22.066406 -85.726562 C 21.359375 -78.796875 21.503906 -55.59375 54.605469 -45.550781 C 55.03125 -45.550781 55.3125 -45.410156 55.59375 -45.410156 C 57.011719 -45.410156 58.28125 -46.257812 58.566406 -47.671875 C 59.132812 -49.230469 58.140625 -50.925781 56.585938 -51.351562 C 28.574219 -59.699219 27.445312 -77.945312 28.152344 -85.160156 C 29.847656 -100.015625 42.015625 -112.464844 56.160156 -113.453125 Z M 56.160156 -113.453125 "/></g></g></g><g fill="#ffffff" fill-opacity="1"><g transform="translate(66.829644, 251.160566)"><g><path d="M 74.835938 -2.40625 C 89.40625 -8.203125 99.167969 -20.511719 100.722656 -34.941406 C 101.710938 -44.84375 98.882812 -53.898438 92.800781 -60.828125 C 86.574219 -67.902344 77.804688 -72.003906 67.761719 -72.429688 C 66.0625 -72.570312 64.648438 -71.15625 64.507812 -69.457031 C 64.367188 -67.761719 65.640625 -66.347656 67.335938 -66.347656 L 67.476562 -66.347656 C 75.964844 -65.921875 83.320312 -62.667969 88.273438 -57.011719 C 93.082031 -51.210938 95.347656 -43.570312 94.640625 -35.507812 C 93.226562 -23.339844 85.019531 -13.15625 72.570312 -8.203125 C 56.867188 -1.980469 39.042969 -5.800781 24.898438 -17.964844 L 25.039062 -17.964844 C 23.625 -19.097656 21.644531 -18.957031 20.652344 -17.824219 C 19.378906 -16.550781 19.523438 -14.570312 20.9375 -13.296875 C 31.546875 -4.101562 44.136719 0.847656 57.011719 0.847656 C 63.09375 0.847656 69.175781 -0.28125 74.835938 -2.40625 Z M 56.160156 -113.453125 C 66.769531 -114.304688 75.542969 -111.613281 81.90625 -105.53125 C 87 -100.4375 90.394531 -92.660156 89.972656 -86.71875 C 89.972656 -85.160156 91.246094 -83.746094 92.941406 -83.605469 C 94.640625 -83.464844 96.054688 -84.738281 96.195312 -86.433594 C 96.476562 -94.074219 92.515625 -103.550781 86.152344 -109.917969 C 78.511719 -117.273438 68.042969 -120.527344 55.738281 -119.535156 C 38.761719 -118.265625 23.90625 -103.410156 22.066406 -85.726562 C 21.359375 -78.796875 21.503906 -55.59375 54.605469 -45.550781 C 55.03125 -45.550781 55.3125 -45.410156 55.59375 -45.410156 C 57.011719 -45.410156 58.28125 -46.257812 58.566406 -47.671875 C 59.132812 -49.230469 58.140625 -50.925781 56.585938 -51.351562 C 28.574219 -59.699219 27.445312 -77.945312 28.152344 -85.160156 C 29.847656 -100.015625 42.015625 -112.464844 56.160156 -113.453125 Z M 56.160156 -113.453125 "/></g></g></g><g fill="#ff0000" fill-opacity="1"><g transform="translate(187.94428, 254.099794)"><g><path d="M 29.46875 -31.160156 L 28.90625 -95.175781 L 68.949219 -3.242188 C 69.652344 -1.550781 71.203125 -0.5625 73.039062 -0.5625 C 73.601562 -0.5625 74.164062 -0.703125 74.730469 -0.988281 C 76.984375 -2.113281 78.113281 -4.652344 77.128906 -6.910156 L 29.75 -115.339844 C 28.90625 -117.3125 26.789062 -118.300781 24.816406 -117.875 C 24.535156 -118.015625 24.394531 -118.015625 24.253906 -118.015625 C 24.253906 -118.015625 24.253906 -118.015625 24.109375 -118.015625 C 21.714844 -118.015625 19.738281 -115.902344 19.738281 -113.503906 L 20.445312 -31.019531 C 20.445312 -28.621094 22.558594 -26.648438 24.957031 -26.648438 C 27.496094 -26.648438 29.46875 -28.621094 29.46875 -31.160156 Z M 99.6875 -84.035156 L 99.6875 -24.675781 L 59.503906 -116.890625 C 58.515625 -119.144531 55.835938 -120.273438 53.578125 -119.285156 C 51.324219 -118.300781 50.335938 -115.621094 51.324219 -113.363281 L 98.699219 -4.933594 C 99.40625 -3.242188 101.097656 -2.257812 102.789062 -2.257812 C 103.070312 -2.257812 103.351562 -2.257812 103.636719 -2.257812 C 103.777344 -2.257812 104.058594 -2.257812 104.199219 -2.257812 C 106.597656 -2.257812 108.570312 -4.230469 108.570312 -6.628906 L 108.570312 -84.035156 C 108.570312 -86.433594 106.597656 -88.40625 104.199219 -88.40625 C 101.660156 -88.40625 99.6875 -86.433594 99.6875 -84.035156 Z M 99.6875 -84.035156 "/></g></g></g><g fill="#00ffff" fill-opacity="1"><g transform="translate(182.656781, 254.099794)"><g><path d="M 29.46875 -31.160156 L 28.90625 -95.175781 L 68.949219 -3.242188 C 69.652344 -1.550781 71.203125 -0.5625 73.039062 -0.5625 C 73.601562 -0.5625 74.164062 -0.703125 74.730469 -0.988281 C 76.984375 -2.113281 78.113281 -4.652344 77.128906 -6.910156 L 29.75 -115.339844 C 28.90625 -117.3125 26.789062 -118.300781 24.816406 -117.875 C 24.535156 -118.015625 24.394531 -118.015625 24.253906 -118.015625 C 24.253906 -118.015625 24.253906 -118.015625 24.109375 -118.015625 C 21.714844 -118.015625 19.738281 -115.902344 19.738281 -113.503906 L 20.445312 -31.019531 C 20.445312 -28.621094 22.558594 -26.648438 24.957031 -26.648438 C 27.496094 -26.648438 29.46875 -28.621094 29.46875 -31.160156 Z M 99.6875 -84.035156 L 99.6875 -24.675781 L 59.503906 -116.890625 C 58.515625 -119.144531 55.835938 -120.273438 53.578125 -119.285156 C 51.324219 -118.300781 50.335938 -115.621094 51.324219 -113.363281 L 98.699219 -4.933594 C 99.40625 -3.242188 101.097656 -2.257812 102.789062 -2.257812 C 103.070312 -2.257812 103.351562 -2.257812 103.636719 -2.257812 C 103.777344 -2.257812 104.058594 -2.257812 104.199219 -2.257812 C 106.597656 -2.257812 108.570312 -4.230469 108.570312 -6.628906 L 108.570312 -84.035156 C 108.570312 -86.433594 106.597656 -88.40625 104.199219 -88.40625 C 101.660156 -88.40625 99.6875 -86.433594 99.6875 -84.035156 Z M 99.6875 -84.035156 "/></g></g></g><g fill="#ffffff" fill-opacity="1"><g transform="translate(185.300529, 254.099794)"><g><path d="M 29.46875 -31.160156 L 28.90625 -95.175781 L 68.949219 -3.242188 C 69.652344 -1.550781 71.203125 -0.5625 73.039062 -0.5625 C 73.601562 -0.5625 74.164062 -0.703125 74.730469 -0.988281 C 76.984375 -2.113281 78.113281 -4.652344 77.128906 -6.910156 L 29.75 -115.339844 C 28.90625 -117.3125 26.789062 -118.300781 24.816406 -117.875 C 24.535156 -118.015625 24.394531 -118.015625 24.253906 -118.015625 C 24.253906 -118.015625 24.253906 -118.015625 24.109375 -118.015625 C 21.714844 -118.015625 19.738281 -115.902344 19.738281 -113.503906 L 20.445312 -31.019531 C 20.445312 -28.621094 22.558594 -26.648438 24.957031 -26.648438 C 27.496094 -26.648438 29.46875 -28.621094 29.46875 -31.160156 Z M 99.6875 -84.035156 L 99.6875 -24.675781 L 59.503906 -116.890625 C 58.515625 -119.144531 55.835938 -120.273438 53.578125 -119.285156 C 51.324219 -118.300781 50.335938 -115.621094 51.324219 -113.363281 L 98.699219 -4.933594 C 99.40625 -3.242188 101.097656 -2.257812 102.789062 -2.257812 C 103.070312 -2.257812 103.351562 -2.257812 103.636719 -2.257812 C 103.777344 -2.257812 104.058594 -2.257812 104.199219 -2.257812 C 106.597656 -2.257812 108.570312 -4.230469 108.570312 -6.628906 L 108.570312 -84.035156 C 108.570312 -86.433594 106.597656 -88.40625 104.199219 -88.40625 C 101.660156 -88.40625 99.6875 -86.433594 99.6875 -84.035156 Z M 99.6875 -84.035156 "/></g></g></g><g fill="#ff0000" fill-opacity="1"><g transform="translate(72.079944, 286.304682)"><g><path d="M 18.132812 -14.382812 L 18.132812 -17.53125 C 18.132812 -18.511719 18.234375 -19.34375 18.261719 -19.59375 L 15.992188 -19.59375 C 16.042969 -19.34375 16.121094 -18.511719 16.121094 -17.53125 L 16.121094 -14.382812 L 8.941406 -14.382812 L 8.941406 -17.605469 C 8.941406 -18.488281 9.042969 -19.191406 9.066406 -19.445312 L 6.824219 -19.445312 C 6.851562 -19.191406 6.925781 -18.410156 6.925781 -17.605469 L 6.925781 -14.382812 L 4.230469 -14.382812 C 3.148438 -14.382812 1.914062 -14.507812 1.6875 -14.558594 L 1.6875 -12.367188 C 1.988281 -12.390625 3.125 -12.46875 4.230469 -12.46875 L 6.925781 -12.46875 L 6.925781 -8.386719 C 6.925781 -7.429688 6.851562 -6.347656 6.824219 -6.09375 L 9.042969 -6.09375 C 9.015625 -6.347656 8.941406 -7.457031 8.941406 -8.386719 L 8.941406 -12.46875 L 16.121094 -12.46875 L 16.121094 -11.410156 C 16.121094 -4.355469 13.828125 -2.191406 9.242188 -0.429688 L 10.929688 1.160156 C 16.699219 -1.410156 18.132812 -4.859375 18.132812 -11.585938 L 18.132812 -12.46875 L 20.90625 -12.46875 C 22.011719 -12.46875 22.945312 -12.417969 23.195312 -12.390625 L 23.195312 -14.507812 C 22.871094 -14.457031 22.011719 -14.382812 20.90625 -14.382812 Z M 18.132812 -14.382812 "/></g></g></g><g fill="#ff0000" fill-opacity="1"><g transform="translate(97.262878, 286.304682)"><g><path d="M 5.71875 -18.460938 L 4.28125 -16.925781 C 6.144531 -15.667969 9.292969 -12.972656 10.554688 -11.660156 L 12.140625 -13.25 C 10.730469 -14.660156 7.503906 -17.277344 5.71875 -18.460938 Z M 3.550781 -1.585938 L 4.886719 0.480469 C 9.09375 -0.300781 12.265625 -1.839844 14.785156 -3.449219 C 18.585938 -5.816406 21.507812 -9.242188 23.246094 -12.390625 L 22.039062 -14.53125 C 20.578125 -11.433594 17.503906 -7.707031 13.625 -5.265625 C 11.234375 -3.777344 7.960938 -2.242188 3.550781 -1.585938 Z M 3.550781 -1.585938 "/></g></g></g><g fill="#ff0000" fill-opacity="1"><g transform="translate(122.445813, 286.304682)"><g><path d="M 17.882812 -16.625 C 18.613281 -16.625 19.496094 -16.597656 20.226562 -16.546875 L 20.226562 -18.636719 C 19.496094 -18.539062 18.585938 -18.488281 17.882812 -18.488281 L 7.683594 -18.488281 C 6.875 -18.488281 6.121094 -18.5625 5.414062 -18.636719 L 5.414062 -16.546875 C 6.042969 -16.597656 6.875 -16.625 7.707031 -16.625 Z M 4.609375 -12.191406 C 3.828125 -12.191406 3.097656 -12.242188 2.417969 -12.316406 L 2.417969 -10.226562 C 3.097656 -10.277344 3.828125 -10.277344 4.609375 -10.277344 L 12.140625 -10.277344 C 12.0625 -7.910156 11.789062 -5.792969 10.679688 -4.03125 C 9.695312 -2.441406 7.882812 -0.980469 5.917969 -0.175781 L 7.78125 1.183594 C 9.921875 0.101562 11.835938 -1.710938 12.746094 -3.398438 C 13.753906 -5.265625 14.15625 -7.554688 14.230469 -10.277344 L 21.082031 -10.277344 C 21.6875 -10.277344 22.492188 -10.25 23.046875 -10.226562 L 23.046875 -12.316406 C 22.441406 -12.214844 21.609375 -12.191406 21.082031 -12.191406 Z M 4.609375 -12.191406 "/></g></g></g><g fill="#ff0000" fill-opacity="1"><g transform="translate(147.628747, 286.304682)"><g><path d="M 18.160156 -15.1875 C 16.875 -13.574219 14.179688 -11.460938 11.660156 -10 C 9.570312 -8.789062 6.144531 -7.253906 2.921875 -6.546875 L 4.003906 -4.710938 C 6.75 -5.492188 9.773438 -6.800781 11.914062 -7.933594 L 11.914062 -0.226562 C 11.914062 0.527344 11.863281 1.5625 11.8125 1.9375 L 14.128906 1.9375 C 14.027344 1.5625 14.003906 0.527344 14.003906 -0.226562 L 14.003906 -9.144531 C 16.296875 -10.578125 18.539062 -12.417969 19.722656 -13.703125 Z M 18.160156 -15.1875 "/></g></g></g><g fill="#00ffff" fill-opacity="1"><g transform="translate(68.931321, 286.304682)"><g><path d="M 18.132812 -14.382812 L 18.132812 -17.53125 C 18.132812 -18.511719 18.234375 -19.34375 18.261719 -19.59375 L 15.992188 -19.59375 C 16.042969 -19.34375 16.121094 -18.511719 16.121094 -17.53125 L 16.121094 -14.382812 L 8.941406 -14.382812 L 8.941406 -17.605469 C 8.941406 -18.488281 9.042969 -19.191406 9.066406 -19.445312 L 6.824219 -19.445312 C 6.851562 -19.191406 6.925781 -18.410156 6.925781 -17.605469 L 6.925781 -14.382812 L 4.230469 -14.382812 C 3.148438 -14.382812 1.914062 -14.507812 1.6875 -14.558594 L 1.6875 -12.367188 C 1.988281 -12.390625 3.125 -12.46875 4.230469 -12.46875 L 6.925781 -12.46875 L 6.925781 -8.386719 C 6.925781 -7.429688 6.851562 -6.347656 6.824219 -6.09375 L 9.042969 -6.09375 C 9.015625 -6.347656 8.941406 -7.457031 8.941406 -8.386719 L 8.941406 -12.46875 L 16.121094 -12.46875 L 16.121094 -11.410156 C 16.121094 -4.355469 13.828125 -2.191406 9.242188 -0.429688 L 10.929688 1.160156 C 16.699219 -1.410156 18.132812 -4.859375 18.132812 -11.585938 L 18.132812 -12.46875 L 20.90625 -12.46875 C 22.011719 -12.46875 22.945312 -12.417969 23.195312 -12.390625 L 23.195312 -14.507812 C 22.871094 -14.457031 22.011719 -14.382812 20.90625 -14.382812 Z M 18.132812 -14.382812 "/></g></g></g><g fill="#00ffff" fill-opacity="1"><g transform="translate(94.114255, 286.304682)"><g><path d="M 5.71875 -18.460938 L 4.28125 -16.925781 C 6.144531 -15.667969 9.292969 -12.972656 10.554688 -11.660156 L 12.140625 -13.25 C 10.730469 -14.660156 7.503906 -17.277344 5.71875 -18.460938 Z M 3.550781 -1.585938 L 4.886719 0.480469 C 9.09375 -0.300781 12.265625 -1.839844 14.785156 -3.449219 C 18.585938 -5.816406 21.507812 -9.242188 23.246094 -12.390625 L 22.039062 -14.53125 C 20.578125 -11.433594 17.503906 -7.707031 13.625 -5.265625 C 11.234375 -3.777344 7.960938 -2.242188 3.550781 -1.585938 Z M 3.550781 -1.585938 "/></g></g></g><g fill="#00ffff" fill-opacity="1"><g transform="translate(119.29719, 286.304682)"><g><path d="M 17.882812 -16.625 C 18.613281 -16.625 19.496094 -16.597656 20.226562 -16.546875 L 20.226562 -18.636719 C 19.496094 -18.539062 18.585938 -18.488281 17.882812 -18.488281 L 7.683594 -18.488281 C 6.875 -18.488281 6.121094 -18.5625 5.414062 -18.636719 L 5.414062 -16.546875 C 6.042969 -16.597656 6.875 -16.625 7.707031 -16.625 Z M 4.609375 -12.191406 C 3.828125 -12.191406 3.097656 -12.242188 2.417969 -12.316406 L 2.417969 -10.226562 C 3.097656 -10.277344 3.828125 -10.277344 4.609375 -10.277344 L 12.140625 -10.277344 C 12.0625 -7.910156 11.789062 -5.792969 10.679688 -4.03125 C 9.695312 -2.441406 7.882812 -0.980469 5.917969 -0.175781 L 7.78125 1.183594 C 9.921875 0.101562 11.835938 -1.710938 12.746094 -3.398438 C 13.753906 -5.265625 14.15625 -7.554688 14.230469 -10.277344 L 21.082031 -10.277344 C 21.6875 -10.277344 22.492188 -10.25 23.046875 -10.226562 L 23.046875 -12.316406 C 22.441406 -12.214844 21.609375 -12.191406 21.082031 -12.191406 Z M 4.609375 -12.191406 "/></g></g></g><g fill="#00ffff" fill-opacity="1"><g transform="translate(144.480124, 286.304682)"><g><path d="M 18.160156 -15.1875 C 16.875 -13.574219 14.179688 -11.460938 11.660156 -10 C 9.570312 -8.789062 6.144531 -7.253906 2.921875 -6.546875 L 4.003906 -4.710938 C 6.75 -5.492188 9.773438 -6.800781 11.914062 -7.933594 L 11.914062 -0.226562 C 11.914062 0.527344 11.863281 1.5625 11.8125 1.9375 L 14.128906 1.9375 C 14.027344 1.5625 14.003906 0.527344 14.003906 -0.226562 L 14.003906 -9.144531 C 16.296875 -10.578125 18.539062 -12.417969 19.722656 -13.703125 Z M 18.160156 -15.1875 "/></g></g></g><g fill="#ffffff" fill-opacity="1"><g transform="translate(70.505632, 286.304682)"><g><path d="M 18.132812 -14.382812 L 18.132812 -17.53125 C 18.132812 -18.511719 18.234375 -19.34375 18.261719 -19.59375 L 15.992188 -19.59375 C 16.042969 -19.34375 16.121094 -18.511719 16.121094 -17.53125 L 16.121094 -14.382812 L 8.941406 -14.382812 L 8.941406 -17.605469 C 8.941406 -18.488281 9.042969 -19.191406 9.066406 -19.445312 L 6.824219 -19.445312 C 6.851562 -19.191406 6.925781 -18.410156 6.925781 -17.605469 L 6.925781 -14.382812 L 4.230469 -14.382812 C 3.148438 -14.382812 1.914062 -14.507812 1.6875 -14.558594 L 1.6875 -12.367188 C 1.988281 -12.390625 3.125 -12.46875 4.230469 -12.46875 L 6.925781 -12.46875 L 6.925781 -8.386719 C 6.925781 -7.429688 6.851562 -6.347656 6.824219 -6.09375 L 9.042969 -6.09375 C 9.015625 -6.347656 8.941406 -7.457031 8.941406 -8.386719 L 8.941406 -12.46875 L 16.121094 -12.46875 L 16.121094 -11.410156 C 16.121094 -4.355469 13.828125 -2.191406 9.242188 -0.429688 L 10.929688 1.160156 C 16.699219 -1.410156 18.132812 -4.859375 18.132812 -11.585938 L 18.132812 -12.46875 L 20.90625 -12.46875 C 22.011719 -12.46875 22.945312 -12.417969 23.195312 -12.390625 L 23.195312 -14.507812 C 22.871094 -14.457031 22.011719 -14.382812 20.90625 -14.382812 Z M 18.132812 -14.382812 "/></g></g></g><g fill="#ffffff" fill-opacity="1"><g transform="translate(95.688567, 286.304682)"><g><path d="M 5.71875 -18.460938 L 4.28125 -16.925781 C 6.144531 -15.667969 9.292969 -12.972656 10.554688 -11.660156 L 12.140625 -13.25 C 10.730469 -14.660156 7.503906 -17.277344 5.71875 -18.460938 Z M 3.550781 -1.585938 L 4.886719 0.480469 C 9.09375 -0.300781 12.265625 -1.839844 14.785156 -3.449219 C 18.585938 -5.816406 21.507812 -9.242188 23.246094 -12.390625 L 22.039062 -14.53125 C 20.578125 -11.433594 17.503906 -7.707031 13.625 -5.265625 C 11.234375 -3.777344 7.960938 -2.242188 3.550781 -1.585938 Z M 3.550781 -1.585938 "/></g></g></g><g fill="#ffffff" fill-opacity="1"><g transform="translate(120.871501, 286.304682)"><g><path d="M 17.882812 -16.625 C 18.613281 -16.625 19.496094 -16.597656 20.226562 -16.546875 L 20.226562 -18.636719 C 19.496094 -18.539062 18.585938 -18.488281 17.882812 -18.488281 L 7.683594 -18.488281 C 6.875 -18.488281 6.121094 -18.5625 5.414062 -18.636719 L 5.414062 -16.546875 C 6.042969 -16.597656 6.875 -16.625 7.707031 -16.625 Z M 4.609375 -12.191406 C 3.828125 -12.191406 3.097656 -12.242188 2.417969 -12.316406 L 2.417969 -10.226562 C 3.097656 -10.277344 3.828125 -10.277344 4.609375 -10.277344 L 12.140625 -10.277344 C 12.0625 -7.910156 11.789062 -5.792969 10.679688 -4.03125 C 9.695312 -2.441406 7.882812 -0.980469 5.917969 -0.175781 L 7.78125 1.183594 C 9.921875 0.101562 11.835938 -1.710938 12.746094 -3.398438 C 13.753906 -5.265625 14.15625 -7.554688 14.230469 -10.277344 L 21.082031 -10.277344 C 21.6875 -10.277344 22.492188 -10.25 23.046875 -10.226562 L 23.046875 -12.316406 C 22.441406 -12.214844 21.609375 -12.191406 21.082031 -12.191406 Z M 4.609375 -12.191406 "/></g></g></g><g fill="#ffffff" fill-opacity="1"><g transform="translate(146.054436, 286.304682)"><g><path d="M 18.160156 -15.1875 C 16.875 -13.574219 14.179688 -11.460938 11.660156 -10 C 9.570312 -8.789062 6.144531 -7.253906 2.921875 -6.546875 L 4.003906 -4.710938 C 6.75 -5.492188 9.773438 -6.800781 11.914062 -7.933594 L 11.914062 -0.226562 C 11.914062 0.527344 11.863281 1.5625 11.8125 1.9375 L 14.128906 1.9375 C 14.027344 1.5625 14.003906 0.527344 14.003906 -0.226562 L 14.003906 -9.144531 C 16.296875 -10.578125 18.539062 -12.417969 19.722656 -13.703125 Z M 18.160156 -15.1875 "/></g></g></g><g fill="#ff0000" fill-opacity="1"><g transform="translate(172.804684, 286.304682)"><g/></g></g><g fill="#00ffff" fill-opacity="1"><g transform="translate(169.656061, 286.304682)"><g/></g></g><g fill="#ffffff" fill-opacity="1"><g transform="translate(171.230372, 286.304682)"><g/></g></g></svg>