<svg xmlns="http://www.w3.org/2000/svg" xmlns:xlink="http://www.w3.org/1999/xlink" width="70" zoomAndPan="magnify" viewBox="0 0 52.5 52.499999" height="70" preserveAspectRatio="xMidYMid meet" version="1.0"><defs><g/></defs><g fill="#ff0000" fill-opacity="1"><g transform="translate(9.727503, 35.162481)"><g><path d="M 10.476562 -0.335938 C 12.515625 -1.148438 13.882812 -2.871094 14.101562 -4.890625 C 14.238281 -6.277344 13.84375 -7.546875 12.992188 -8.515625 C 12.121094 -9.507812 10.894531 -10.082031 9.488281 -10.140625 C 9.25 -10.160156 9.050781 -9.960938 9.03125 -9.722656 C 9.011719 -9.488281 9.191406 -9.289062 9.425781 -9.289062 L 9.445312 -9.289062 C 10.636719 -9.230469 11.664062 -8.773438 12.359375 -7.980469 C 13.03125 -7.167969 13.347656 -6.101562 13.25 -4.972656 C 13.050781 -3.269531 11.902344 -1.84375 10.160156 -1.148438 C 7.960938 -0.277344 5.464844 -0.8125 3.484375 -2.515625 L 3.503906 -2.515625 C 3.308594 -2.671875 3.03125 -2.652344 2.890625 -2.496094 C 2.714844 -2.316406 2.734375 -2.039062 2.929688 -1.863281 C 4.417969 -0.574219 6.179688 0.117188 7.980469 0.117188 C 8.832031 0.117188 9.683594 -0.0390625 10.476562 -0.335938 Z M 7.863281 -15.882812 C 9.347656 -16.003906 10.574219 -15.625 11.46875 -14.773438 C 12.179688 -14.0625 12.65625 -12.972656 12.597656 -12.140625 C 12.597656 -11.921875 12.773438 -11.722656 13.011719 -11.703125 C 13.25 -11.683594 13.449219 -11.863281 13.46875 -12.101562 C 13.507812 -13.171875 12.953125 -14.496094 12.0625 -15.386719 C 10.992188 -16.417969 9.527344 -16.875 7.804688 -16.734375 C 5.425781 -16.558594 3.347656 -14.476562 3.089844 -12 C 2.992188 -11.03125 3.011719 -7.785156 7.644531 -6.378906 C 7.703125 -6.378906 7.742188 -6.355469 7.785156 -6.355469 C 7.980469 -6.355469 8.160156 -6.476562 8.199219 -6.675781 C 8.277344 -6.890625 8.140625 -7.128906 7.921875 -7.1875 C 4 -8.359375 3.84375 -10.914062 3.941406 -11.921875 C 4.179688 -14.003906 5.882812 -15.746094 7.863281 -15.882812 Z M 7.863281 -15.882812 "/></g></g></g><g fill="#00ffff" fill-opacity="1"><g transform="translate(8.984798, 35.162481)"><g><path d="M 10.476562 -0.335938 C 12.515625 -1.148438 13.882812 -2.871094 14.101562 -4.890625 C 14.238281 -6.277344 13.84375 -7.546875 12.992188 -8.515625 C 12.121094 -9.507812 10.894531 -10.082031 9.488281 -10.140625 C 9.25 -10.160156 9.050781 -9.960938 9.03125 -9.722656 C 9.011719 -9.488281 9.191406 -9.289062 9.425781 -9.289062 L 9.445312 -9.289062 C 10.636719 -9.230469 11.664062 -8.773438 12.359375 -7.980469 C 13.03125 -7.167969 13.347656 -6.101562 13.25 -4.972656 C 13.050781 -3.269531 11.902344 -1.84375 10.160156 -1.148438 C 7.960938 -0.277344 5.464844 -0.8125 3.484375 -2.515625 L 3.503906 -2.515625 C 3.308594 -2.671875 3.03125 -2.652344 2.890625 -2.496094 C 2.714844 -2.316406 2.734375 -2.039062 2.929688 -1.863281 C 4.417969 -0.574219 6.179688 0.117188 7.980469 0.117188 C 8.832031 0.117188 9.683594 -0.0390625 10.476562 -0.335938 Z M 7.863281 -15.882812 C 9.347656 -16.003906 10.574219 -15.625 11.46875 -14.773438 C 12.179688 -14.0625 12.65625 -12.972656 12.597656 -12.140625 C 12.597656 -11.921875 12.773438 -11.722656 13.011719 -11.703125 C 13.25 -11.683594 13.449219 -11.863281 13.46875 -12.101562 C 13.507812 -13.171875 12.953125 -14.496094 12.0625 -15.386719 C 10.992188 -16.417969 9.527344 -16.875 7.804688 -16.734375 C 5.425781 -16.558594 3.347656 -14.476562 3.089844 -12 C 2.992188 -11.03125 3.011719 -7.785156 7.644531 -6.378906 C 7.703125 -6.378906 7.742188 -6.355469 7.785156 -6.355469 C 7.980469 -6.355469 8.160156 -6.476562 8.199219 -6.675781 C 8.277344 -6.890625 8.140625 -7.128906 7.921875 -7.1875 C 4 -8.359375 3.84375 -10.914062 3.941406 -11.921875 C 4.179688 -14.003906 5.882812 -15.746094 7.863281 -15.882812 Z M 7.863281 -15.882812 "/></g></g></g><g fill="#ffffff" fill-opacity="1"><g transform="translate(9.35615, 35.162481)"><g><path d="M 10.476562 -0.335938 C 12.515625 -1.148438 13.882812 -2.871094 14.101562 -4.890625 C 14.238281 -6.277344 13.84375 -7.546875 12.992188 -8.515625 C 12.121094 -9.507812 10.894531 -10.082031 9.488281 -10.140625 C 9.25 -10.160156 9.050781 -9.960938 9.03125 -9.722656 C 9.011719 -9.488281 9.191406 -9.289062 9.425781 -9.289062 L 9.445312 -9.289062 C 10.636719 -9.230469 11.664062 -8.773438 12.359375 -7.980469 C 13.03125 -7.167969 13.347656 -6.101562 13.25 -4.972656 C 13.050781 -3.269531 11.902344 -1.84375 10.160156 -1.148438 C 7.960938 -0.277344 5.464844 -0.8125 3.484375 -2.515625 L 3.503906 -2.515625 C 3.308594 -2.671875 3.03125 -2.652344 2.890625 -2.496094 C 2.714844 -2.316406 2.734375 -2.039062 2.929688 -1.863281 C 4.417969 -0.574219 6.179688 0.117188 7.980469 0.117188 C 8.832031 0.117188 9.683594 -0.0390625 10.476562 -0.335938 Z M 7.863281 -15.882812 C 9.347656 -16.003906 10.574219 -15.625 11.46875 -14.773438 C 12.179688 -14.0625 12.65625 -12.972656 12.597656 -12.140625 C 12.597656 -11.921875 12.773438 -11.722656 13.011719 -11.703125 C 13.25 -11.683594 13.449219 -11.863281 13.46875 -12.101562 C 13.507812 -13.171875 12.953125 -14.496094 12.0625 -15.386719 C 10.992188 -16.417969 9.527344 -16.875 7.804688 -16.734375 C 5.425781 -16.558594 3.347656 -14.476562 3.089844 -12 C 2.992188 -11.03125 3.011719 -7.785156 7.644531 -6.378906 C 7.703125 -6.378906 7.742188 -6.355469 7.785156 -6.355469 C 7.980469 -6.355469 8.160156 -6.476562 8.199219 -6.675781 C 8.277344 -6.890625 8.140625 -7.128906 7.921875 -7.1875 C 4 -8.359375 3.84375 -10.914062 3.941406 -11.921875 C 4.179688 -14.003906 5.882812 -15.746094 7.863281 -15.882812 Z M 7.863281 -15.882812 "/></g></g></g><g fill="#ff0000" fill-opacity="1"><g transform="translate(26.3122, 35.573971)"><g><path d="M 4.125 -4.363281 L 4.046875 -13.324219 L 9.652344 -0.453125 C 9.75 -0.21875 9.96875 -0.078125 10.226562 -0.078125 C 10.304688 -0.078125 10.382812 -0.0976562 10.460938 -0.136719 C 10.777344 -0.296875 10.9375 -0.652344 10.796875 -0.96875 L 4.164062 -16.148438 C 4.046875 -16.421875 3.75 -16.5625 3.472656 -16.503906 C 3.433594 -16.523438 3.414062 -16.523438 3.394531 -16.523438 C 3.394531 -16.523438 3.394531 -16.523438 3.375 -16.523438 C 3.039062 -16.523438 2.761719 -16.226562 2.761719 -15.890625 L 2.863281 -4.34375 C 2.863281 -4.007812 3.160156 -3.730469 3.492188 -3.730469 C 3.847656 -3.730469 4.125 -4.007812 4.125 -4.363281 Z M 13.957031 -11.765625 L 13.957031 -3.453125 L 8.332031 -16.363281 C 8.191406 -16.679688 7.816406 -16.839844 7.5 -16.699219 C 7.183594 -16.5625 7.046875 -16.1875 7.183594 -15.871094 L 13.816406 -0.691406 C 13.917969 -0.453125 14.152344 -0.316406 14.390625 -0.316406 C 14.429688 -0.316406 14.46875 -0.316406 14.507812 -0.316406 C 14.527344 -0.316406 14.566406 -0.316406 14.585938 -0.316406 C 14.921875 -0.316406 15.199219 -0.59375 15.199219 -0.929688 L 15.199219 -11.765625 C 15.199219 -12.101562 14.921875 -12.378906 14.585938 -12.378906 C 14.234375 -12.378906 13.957031 -12.101562 13.957031 -11.765625 Z M 13.957031 -11.765625 "/></g></g></g><g fill="#00ffff" fill-opacity="1"><g transform="translate(25.571949, 35.573971)"><g><path d="M 4.125 -4.363281 L 4.046875 -13.324219 L 9.652344 -0.453125 C 9.75 -0.21875 9.96875 -0.078125 10.226562 -0.078125 C 10.304688 -0.078125 10.382812 -0.0976562 10.460938 -0.136719 C 10.777344 -0.296875 10.9375 -0.652344 10.796875 -0.96875 L 4.164062 -16.148438 C 4.046875 -16.421875 3.75 -16.5625 3.472656 -16.503906 C 3.433594 -16.523438 3.414062 -16.523438 3.394531 -16.523438 C 3.394531 -16.523438 3.394531 -16.523438 3.375 -16.523438 C 3.039062 -16.523438 2.761719 -16.226562 2.761719 -15.890625 L 2.863281 -4.34375 C 2.863281 -4.007812 3.160156 -3.730469 3.492188 -3.730469 C 3.847656 -3.730469 4.125 -4.007812 4.125 -4.363281 Z M 13.957031 -11.765625 L 13.957031 -3.453125 L 8.332031 -16.363281 C 8.191406 -16.679688 7.816406 -16.839844 7.5 -16.699219 C 7.183594 -16.5625 7.046875 -16.1875 7.183594 -15.871094 L 13.816406 -0.691406 C 13.917969 -0.453125 14.152344 -0.316406 14.390625 -0.316406 C 14.429688 -0.316406 14.46875 -0.316406 14.507812 -0.316406 C 14.527344 -0.316406 14.566406 -0.316406 14.585938 -0.316406 C 14.921875 -0.316406 15.199219 -0.59375 15.199219 -0.929688 L 15.199219 -11.765625 C 15.199219 -12.101562 14.921875 -12.378906 14.585938 -12.378906 C 14.234375 -12.378906 13.957031 -12.101562 13.957031 -11.765625 Z M 13.957031 -11.765625 "/></g></g></g><g fill="#ffffff" fill-opacity="1"><g transform="translate(25.942074, 35.573971)"><g><path d="M 4.125 -4.363281 L 4.046875 -13.324219 L 9.652344 -0.453125 C 9.75 -0.21875 9.96875 -0.078125 10.226562 -0.078125 C 10.304688 -0.078125 10.382812 -0.0976562 10.460938 -0.136719 C 10.777344 -0.296875 10.9375 -0.652344 10.796875 -0.96875 L 4.164062 -16.148438 C 4.046875 -16.421875 3.75 -16.5625 3.472656 -16.503906 C 3.433594 -16.523438 3.414062 -16.523438 3.394531 -16.523438 C 3.394531 -16.523438 3.394531 -16.523438 3.375 -16.523438 C 3.039062 -16.523438 2.761719 -16.226562 2.761719 -15.890625 L 2.863281 -4.34375 C 2.863281 -4.007812 3.160156 -3.730469 3.492188 -3.730469 C 3.847656 -3.730469 4.125 -4.007812 4.125 -4.363281 Z M 13.957031 -11.765625 L 13.957031 -3.453125 L 8.332031 -16.363281 C 8.191406 -16.679688 7.816406 -16.839844 7.5 -16.699219 C 7.183594 -16.5625 7.046875 -16.1875 7.183594 -15.871094 L 13.816406 -0.691406 C 13.917969 -0.453125 14.152344 -0.316406 14.390625 -0.316406 C 14.429688 -0.316406 14.46875 -0.316406 14.507812 -0.316406 C 14.527344 -0.316406 14.566406 -0.316406 14.585938 -0.316406 C 14.921875 -0.316406 15.199219 -0.59375 15.199219 -0.929688 L 15.199219 -11.765625 C 15.199219 -12.101562 14.921875 -12.378906 14.585938 -12.378906 C 14.234375 -12.378906 13.957031 -12.101562 13.957031 -11.765625 Z M 13.957031 -11.765625 "/></g></g></g><g fill="#ff0000" fill-opacity="1"><g transform="translate(10.091192, 40.082656)"><g><path d="M 2.539062 -2.011719 L 2.539062 -2.453125 C 2.539062 -2.589844 2.554688 -2.707031 2.554688 -2.742188 L 2.238281 -2.742188 C 2.246094 -2.707031 2.257812 -2.589844 2.257812 -2.453125 L 2.257812 -2.011719 L 1.25 -2.011719 L 1.25 -2.464844 C 1.25 -2.589844 1.265625 -2.6875 1.269531 -2.722656 L 0.957031 -2.722656 C 0.960938 -2.6875 0.96875 -2.578125 0.96875 -2.464844 L 0.96875 -2.011719 L 0.59375 -2.011719 C 0.441406 -2.011719 0.269531 -2.03125 0.234375 -2.039062 L 0.234375 -1.730469 C 0.277344 -1.734375 0.4375 -1.746094 0.59375 -1.746094 L 0.96875 -1.746094 L 0.96875 -1.175781 C 0.96875 -1.039062 0.960938 -0.886719 0.957031 -0.851562 L 1.265625 -0.851562 C 1.261719 -0.886719 1.25 -1.042969 1.25 -1.175781 L 1.25 -1.746094 L 2.257812 -1.746094 L 2.257812 -1.597656 C 2.257812 -0.609375 1.9375 -0.308594 1.292969 -0.0585938 L 1.53125 0.164062 C 2.335938 -0.199219 2.539062 -0.679688 2.539062 -1.621094 L 2.539062 -1.746094 L 2.925781 -1.746094 C 3.082031 -1.746094 3.210938 -1.738281 3.246094 -1.734375 L 3.246094 -2.03125 C 3.203125 -2.023438 3.082031 -2.011719 2.925781 -2.011719 Z M 2.539062 -2.011719 "/></g></g></g><g fill="#ff0000" fill-opacity="1"><g transform="translate(13.616803, 40.082656)"><g><path d="M 0.800781 -2.585938 L 0.597656 -2.371094 C 0.859375 -2.191406 1.300781 -1.816406 1.476562 -1.632812 L 1.699219 -1.855469 C 1.503906 -2.050781 1.050781 -2.417969 0.800781 -2.585938 Z M 0.496094 -0.222656 L 0.683594 0.0664062 C 1.273438 -0.0429688 1.71875 -0.257812 2.070312 -0.484375 C 2.601562 -0.816406 3.011719 -1.292969 3.253906 -1.734375 L 3.085938 -2.035156 C 2.878906 -1.601562 2.449219 -1.078125 1.90625 -0.738281 C 1.574219 -0.527344 1.113281 -0.3125 0.496094 -0.222656 Z M 0.496094 -0.222656 "/></g></g></g><g fill="#ff0000" fill-opacity="1"><g transform="translate(17.142413, 40.082656)"><g><path d="M 2.503906 -2.328125 C 2.605469 -2.328125 2.730469 -2.324219 2.832031 -2.316406 L 2.832031 -2.609375 C 2.730469 -2.59375 2.601562 -2.589844 2.503906 -2.589844 L 1.074219 -2.589844 C 0.960938 -2.589844 0.855469 -2.597656 0.757812 -2.609375 L 0.757812 -2.316406 C 0.847656 -2.324219 0.960938 -2.328125 1.078125 -2.328125 Z M 0.644531 -1.707031 C 0.535156 -1.707031 0.433594 -1.714844 0.339844 -1.722656 L 0.339844 -1.429688 C 0.433594 -1.4375 0.535156 -1.4375 0.644531 -1.4375 L 1.699219 -1.4375 C 1.6875 -1.105469 1.648438 -0.8125 1.496094 -0.5625 C 1.359375 -0.34375 1.105469 -0.136719 0.828125 -0.0234375 L 1.089844 0.164062 C 1.390625 0.015625 1.65625 -0.238281 1.785156 -0.476562 C 1.925781 -0.738281 1.980469 -1.058594 1.992188 -1.4375 L 2.953125 -1.4375 C 3.035156 -1.4375 3.148438 -1.433594 3.226562 -1.429688 L 3.226562 -1.722656 C 3.140625 -1.710938 3.027344 -1.707031 2.953125 -1.707031 Z M 0.644531 -1.707031 "/></g></g></g><g fill="#ff0000" fill-opacity="1"><g transform="translate(20.668024, 40.082656)"><g><path d="M 2.542969 -2.125 C 2.363281 -1.902344 1.984375 -1.605469 1.632812 -1.398438 C 1.339844 -1.230469 0.859375 -1.015625 0.410156 -0.917969 L 0.5625 -0.660156 C 0.945312 -0.769531 1.367188 -0.953125 1.667969 -1.109375 L 1.667969 -0.03125 C 1.667969 0.0742188 1.660156 0.21875 1.652344 0.273438 L 1.976562 0.273438 C 1.964844 0.21875 1.960938 0.0742188 1.960938 -0.03125 L 1.960938 -1.28125 C 2.28125 -1.480469 2.59375 -1.738281 2.761719 -1.917969 Z M 2.542969 -2.125 "/></g></g></g><g fill="#00ffff" fill-opacity="1"><g transform="translate(9.650384, 40.082656)"><g><path d="M 2.539062 -2.011719 L 2.539062 -2.453125 C 2.539062 -2.589844 2.554688 -2.707031 2.554688 -2.742188 L 2.238281 -2.742188 C 2.246094 -2.707031 2.257812 -2.589844 2.257812 -2.453125 L 2.257812 -2.011719 L 1.25 -2.011719 L 1.25 -2.464844 C 1.25 -2.589844 1.265625 -2.6875 1.269531 -2.722656 L 0.957031 -2.722656 C 0.960938 -2.6875 0.96875 -2.578125 0.96875 -2.464844 L 0.96875 -2.011719 L 0.59375 -2.011719 C 0.441406 -2.011719 0.269531 -2.03125 0.234375 -2.039062 L 0.234375 -1.730469 C 0.277344 -1.734375 0.4375 -1.746094 0.59375 -1.746094 L 0.96875 -1.746094 L 0.96875 -1.175781 C 0.96875 -1.039062 0.960938 -0.886719 0.957031 -0.851562 L 1.265625 -0.851562 C 1.261719 -0.886719 1.25 -1.042969 1.25 -1.175781 L 1.25 -1.746094 L 2.257812 -1.746094 L 2.257812 -1.597656 C 2.257812 -0.609375 1.9375 -0.308594 1.292969 -0.0585938 L 1.53125 0.164062 C 2.335938 -0.199219 2.539062 -0.679688 2.539062 -1.621094 L 2.539062 -1.746094 L 2.925781 -1.746094 C 3.082031 -1.746094 3.210938 -1.738281 3.246094 -1.734375 L 3.246094 -2.03125 C 3.203125 -2.023438 3.082031 -2.011719 2.925781 -2.011719 Z M 2.539062 -2.011719 "/></g></g></g><g fill="#00ffff" fill-opacity="1"><g transform="translate(13.175995, 40.082656)"><g><path d="M 0.800781 -2.585938 L 0.597656 -2.371094 C 0.859375 -2.191406 1.300781 -1.816406 1.476562 -1.632812 L 1.699219 -1.855469 C 1.503906 -2.050781 1.050781 -2.417969 0.800781 -2.585938 Z M 0.496094 -0.222656 L 0.683594 0.0664062 C 1.273438 -0.0429688 1.71875 -0.257812 2.070312 -0.484375 C 2.601562 -0.816406 3.011719 -1.292969 3.253906 -1.734375 L 3.085938 -2.035156 C 2.878906 -1.601562 2.449219 -1.078125 1.90625 -0.738281 C 1.574219 -0.527344 1.113281 -0.3125 0.496094 -0.222656 Z M 0.496094 -0.222656 "/></g></g></g><g fill="#00ffff" fill-opacity="1"><g transform="translate(16.701606, 40.082656)"><g><path d="M 2.503906 -2.328125 C 2.605469 -2.328125 2.730469 -2.324219 2.832031 -2.316406 L 2.832031 -2.609375 C 2.730469 -2.59375 2.601562 -2.589844 2.503906 -2.589844 L 1.074219 -2.589844 C 0.960938 -2.589844 0.855469 -2.597656 0.757812 -2.609375 L 0.757812 -2.316406 C 0.847656 -2.324219 0.960938 -2.328125 1.078125 -2.328125 Z M 0.644531 -1.707031 C 0.535156 -1.707031 0.433594 -1.714844 0.339844 -1.722656 L 0.339844 -1.429688 C 0.433594 -1.4375 0.535156 -1.4375 0.644531 -1.4375 L 1.699219 -1.4375 C 1.6875 -1.105469 1.648438 -0.8125 1.496094 -0.5625 C 1.359375 -0.34375 1.105469 -0.136719 0.828125 -0.0234375 L 1.089844 0.164062 C 1.390625 0.015625 1.65625 -0.238281 1.785156 -0.476562 C 1.925781 -0.738281 1.980469 -1.058594 1.992188 -1.4375 L 2.953125 -1.4375 C 3.035156 -1.4375 3.148438 -1.433594 3.226562 -1.429688 L 3.226562 -1.722656 C 3.140625 -1.710938 3.027344 -1.707031 2.953125 -1.707031 Z M 0.644531 -1.707031 "/></g></g></g><g fill="#00ffff" fill-opacity="1"><g transform="translate(20.227216, 40.082656)"><g><path d="M 2.542969 -2.125 C 2.363281 -1.902344 1.984375 -1.605469 1.632812 -1.398438 C 1.339844 -1.230469 0.859375 -1.015625 0.410156 -0.917969 L 0.5625 -0.660156 C 0.945312 -0.769531 1.367188 -0.953125 1.667969 -1.109375 L 1.667969 -0.03125 C 1.667969 0.0742188 1.660156 0.21875 1.652344 0.273438 L 1.976562 0.273438 C 1.964844 0.21875 1.960938 0.0742188 1.960938 -0.03125 L 1.960938 -1.28125 C 2.28125 -1.480469 2.59375 -1.738281 2.761719 -1.917969 Z M 2.542969 -2.125 "/></g></g></g><g fill="#ffffff" fill-opacity="1"><g transform="translate(9.870788, 40.082656)"><g><path d="M 2.539062 -2.011719 L 2.539062 -2.453125 C 2.539062 -2.589844 2.554688 -2.707031 2.554688 -2.742188 L 2.238281 -2.742188 C 2.246094 -2.707031 2.257812 -2.589844 2.257812 -2.453125 L 2.257812 -2.011719 L 1.25 -2.011719 L 1.25 -2.464844 C 1.25 -2.589844 1.265625 -2.6875 1.269531 -2.722656 L 0.957031 -2.722656 C 0.960938 -2.6875 0.96875 -2.578125 0.96875 -2.464844 L 0.96875 -2.011719 L 0.59375 -2.011719 C 0.441406 -2.011719 0.269531 -2.03125 0.234375 -2.039062 L 0.234375 -1.730469 C 0.277344 -1.734375 0.4375 -1.746094 0.59375 -1.746094 L 0.96875 -1.746094 L 0.96875 -1.175781 C 0.96875 -1.039062 0.960938 -0.886719 0.957031 -0.851562 L 1.265625 -0.851562 C 1.261719 -0.886719 1.25 -1.042969 1.25 -1.175781 L 1.25 -1.746094 L 2.257812 -1.746094 L 2.257812 -1.597656 C 2.257812 -0.609375 1.9375 -0.308594 1.292969 -0.0585938 L 1.53125 0.164062 C 2.335938 -0.199219 2.539062 -0.679688 2.539062 -1.621094 L 2.539062 -1.746094 L 2.925781 -1.746094 C 3.082031 -1.746094 3.210938 -1.738281 3.246094 -1.734375 L 3.246094 -2.03125 C 3.203125 -2.023438 3.082031 -2.011719 2.925781 -2.011719 Z M 2.539062 -2.011719 "/></g></g></g><g fill="#ffffff" fill-opacity="1"><g transform="translate(13.396399, 40.082656)"><g><path d="M 0.800781 -2.585938 L 0.597656 -2.371094 C 0.859375 -2.191406 1.300781 -1.816406 1.476562 -1.632812 L 1.699219 -1.855469 C 1.503906 -2.050781 1.050781 -2.417969 0.800781 -2.585938 Z M 0.496094 -0.222656 L 0.683594 0.0664062 C 1.273438 -0.0429688 1.71875 -0.257812 2.070312 -0.484375 C 2.601562 -0.816406 3.011719 -1.292969 3.253906 -1.734375 L 3.085938 -2.035156 C 2.878906 -1.601562 2.449219 -1.078125 1.90625 -0.738281 C 1.574219 -0.527344 1.113281 -0.3125 0.496094 -0.222656 Z M 0.496094 -0.222656 "/></g></g></g><g fill="#ffffff" fill-opacity="1"><g transform="translate(16.922009, 40.082656)"><g><path d="M 2.503906 -2.328125 C 2.605469 -2.328125 2.730469 -2.324219 2.832031 -2.316406 L 2.832031 -2.609375 C 2.730469 -2.59375 2.601562 -2.589844 2.503906 -2.589844 L 1.074219 -2.589844 C 0.960938 -2.589844 0.855469 -2.597656 0.757812 -2.609375 L 0.757812 -2.316406 C 0.847656 -2.324219 0.960938 -2.328125 1.078125 -2.328125 Z M 0.644531 -1.707031 C 0.535156 -1.707031 0.433594 -1.714844 0.339844 -1.722656 L 0.339844 -1.429688 C 0.433594 -1.4375 0.535156 -1.4375 0.644531 -1.4375 L 1.699219 -1.4375 C 1.6875 -1.105469 1.648438 -0.8125 1.496094 -0.5625 C 1.359375 -0.34375 1.105469 -0.136719 0.828125 -0.0234375 L 1.089844 0.164062 C 1.390625 0.015625 1.65625 -0.238281 1.785156 -0.476562 C 1.925781 -0.738281 1.980469 -1.058594 1.992188 -1.4375 L 2.953125 -1.4375 C 3.035156 -1.4375 3.148438 -1.433594 3.226562 -1.429688 L 3.226562 -1.722656 C 3.140625 -1.710938 3.027344 -1.707031 2.953125 -1.707031 Z M 0.644531 -1.707031 "/></g></g></g><g fill="#ffffff" fill-opacity="1"><g transform="translate(20.44762, 40.082656)"><g><path d="M 2.542969 -2.125 C 2.363281 -1.902344 1.984375 -1.605469 1.632812 -1.398438 C 1.339844 -1.230469 0.859375 -1.015625 0.410156 -0.917969 L 0.5625 -0.660156 C 0.945312 -0.769531 1.367188 -0.953125 1.667969 -1.109375 L 1.667969 -0.03125 C 1.667969 0.0742188 1.660156 0.21875 1.652344 0.273438 L 1.976562 0.273438 C 1.964844 0.21875 1.960938 0.0742188 1.960938 -0.03125 L 1.960938 -1.28125 C 2.28125 -1.480469 2.59375 -1.738281 2.761719 -1.917969 Z M 2.542969 -2.125 "/></g></g></g><g fill="#ff0000" fill-opacity="1"><g transform="translate(24.192655, 40.082656)"><g/></g></g><g fill="#00ffff" fill-opacity="1"><g transform="translate(23.751847, 40.082656)"><g/></g></g><g fill="#ffffff" fill-opacity="1"><g transform="translate(23.972251, 40.082656)"><g/></g></g></svg>