<svg xmlns="http://www.w3.org/2000/svg" xmlns:xlink="http://www.w3.org/1999/xlink" width="500" zoomAndPan="magnify" viewBox="0 0 375 374.999991" height="500" preserveAspectRatio="xMidYMid meet" version="1.0"><defs><g/></defs><g fill="#ff0000" fill-opacity="1"><g transform="translate(61.277786, 174.839057)"><g><path d="M 96.21875 -76.921875 L 96.21875 -90.429688 C 96.21875 -95.574219 96.730469 -99.820312 96.988281 -102.390625 L 78.722656 -102.390625 C 79.109375 -99.820312 79.496094 -95.574219 79.496094 -90.429688 L 79.496094 -76.921875 L 49.007812 -76.921875 L 49.007812 -89.527344 C 49.007812 -94.675781 49.394531 -98.789062 49.78125 -101.234375 L 31.515625 -101.234375 C 31.773438 -98.789062 32.285156 -94.546875 32.285156 -89.65625 L 32.285156 -76.921875 L 21.351562 -76.921875 C 14.921875 -76.921875 9.777344 -77.695312 7.460938 -78.082031 L 7.460938 -60.585938 C 10.289062 -60.84375 14.921875 -61.101562 21.351562 -61.101562 L 32.285156 -61.101562 L 32.285156 -43.605469 C 32.285156 -37.816406 31.902344 -32.671875 31.515625 -30.101562 L 49.523438 -30.101562 C 49.394531 -32.671875 49.007812 -37.945312 49.007812 -43.605469 L 49.007812 -61.101562 L 79.496094 -61.101562 L 79.496094 -56.210938 C 79.496094 -24.699219 68.5625 -13.507812 43.734375 -4.886719 L 57.5 8.105469 C 88.5 -5.53125 96.21875 -24.953125 96.21875 -56.855469 L 96.21875 -61.101562 L 105.738281 -61.101562 C 112.554688 -61.101562 117.054688 -60.972656 119.886719 -60.714844 L 119.886719 -77.824219 C 116.414062 -77.179688 112.554688 -76.921875 105.738281 -76.921875 Z M 96.21875 -76.921875 "/></g></g></g><g fill="#ff0000" fill-opacity="1"><g transform="translate(189.907282, 174.839057)"><g><path d="M 31 -97.761719 L 18.910156 -84.898438 C 28.300781 -78.335938 44.378906 -64.316406 51.066406 -57.113281 L 64.1875 -70.621094 C 56.726562 -78.335938 40.003906 -91.714844 31 -97.761719 Z M 14.921875 -12.089844 L 25.726562 4.886719 C 43.863281 1.800781 60.457031 -5.402344 73.449219 -13.25 C 94.160156 -25.726562 111.269531 -43.476562 121.042969 -60.84375 L 111.011719 -78.980469 C 102.90625 -61.617188 86.054688 -41.933594 64.1875 -28.941406 C 51.710938 -21.480469 34.988281 -14.921875 14.921875 -12.089844 Z M 14.921875 -12.089844 "/></g></g></g><g fill="#00ffff" fill-opacity="1"><g transform="translate(56.453799, 174.839057)"><g><path d="M 96.21875 -76.921875 L 96.21875 -90.429688 C 96.21875 -95.574219 96.730469 -99.820312 96.988281 -102.390625 L 78.722656 -102.390625 C 79.109375 -99.820312 79.496094 -95.574219 79.496094 -90.429688 L 79.496094 -76.921875 L 49.007812 -76.921875 L 49.007812 -89.527344 C 49.007812 -94.675781 49.394531 -98.789062 49.78125 -101.234375 L 31.515625 -101.234375 C 31.773438 -98.789062 32.285156 -94.546875 32.285156 -89.65625 L 32.285156 -76.921875 L 21.351562 -76.921875 C 14.921875 -76.921875 9.777344 -77.695312 7.460938 -78.082031 L 7.460938 -60.585938 C 10.289062 -60.84375 14.921875 -61.101562 21.351562 -61.101562 L 32.285156 -61.101562 L 32.285156 -43.605469 C 32.285156 -37.816406 31.902344 -32.671875 31.515625 -30.101562 L 49.523438 -30.101562 C 49.394531 -32.671875 49.007812 -37.945312 49.007812 -43.605469 L 49.007812 -61.101562 L 79.496094 -61.101562 L 79.496094 -56.210938 C 79.496094 -24.699219 68.5625 -13.507812 43.734375 -4.886719 L 57.5 8.105469 C 88.5 -5.53125 96.21875 -24.953125 96.21875 -56.855469 L 96.21875 -61.101562 L 105.738281 -61.101562 C 112.554688 -61.101562 117.054688 -60.972656 119.886719 -60.714844 L 119.886719 -77.824219 C 116.414062 -77.179688 112.554688 -76.921875 105.738281 -76.921875 Z M 96.21875 -76.921875 "/></g></g></g><g fill="#00ffff" fill-opacity="1"><g transform="translate(185.083295, 174.839057)"><g><path d="M 31 -97.761719 L 18.910156 -84.898438 C 28.300781 -78.335938 44.378906 -64.316406 51.066406 -57.113281 L 64.1875 -70.621094 C 56.726562 -78.335938 40.003906 -91.714844 31 -97.761719 Z M 14.921875 -12.089844 L 25.726562 4.886719 C 43.863281 1.800781 60.457031 -5.402344 73.449219 -13.25 C 94.160156 -25.726562 111.269531 -43.476562 121.042969 -60.84375 L 111.011719 -78.980469 C 102.90625 -61.617188 86.054688 -41.933594 64.1875 -28.941406 C 51.710938 -21.480469 34.988281 -14.921875 14.921875 -12.089844 Z M 14.921875 -12.089844 "/></g></g></g><g fill="#201d1d" fill-opacity="1"><g transform="translate(58.865792, 174.839057)"><g><path d="M 96.21875 -76.921875 L 96.21875 -90.429688 C 96.21875 -95.574219 96.730469 -99.820312 96.988281 -102.390625 L 78.722656 -102.390625 C 79.109375 -99.820312 79.496094 -95.574219 79.496094 -90.429688 L 79.496094 -76.921875 L 49.007812 -76.921875 L 49.007812 -89.527344 C 49.007812 -94.675781 49.394531 -98.789062 49.78125 -101.234375 L 31.515625 -101.234375 C 31.773438 -98.789062 32.285156 -94.546875 32.285156 -89.65625 L 32.285156 -76.921875 L 21.351562 -76.921875 C 14.921875 -76.921875 9.777344 -77.695312 7.460938 -78.082031 L 7.460938 -60.585938 C 10.289062 -60.84375 14.921875 -61.101562 21.351562 -61.101562 L 32.285156 -61.101562 L 32.285156 -43.605469 C 32.285156 -37.816406 31.902344 -32.671875 31.515625 -30.101562 L 49.523438 -30.101562 C 49.394531 -32.671875 49.007812 -37.945312 49.007812 -43.605469 L 49.007812 -61.101562 L 79.496094 -61.101562 L 79.496094 -56.210938 C 79.496094 -24.699219 68.5625 -13.507812 43.734375 -4.886719 L 57.5 8.105469 C 88.5 -5.53125 96.21875 -24.953125 96.21875 -56.855469 L 96.21875 -61.101562 L 105.738281 -61.101562 C 112.554688 -61.101562 117.054688 -60.972656 119.886719 -60.714844 L 119.886719 -77.824219 C 116.414062 -77.179688 112.554688 -76.921875 105.738281 -76.921875 Z M 96.21875 -76.921875 "/></g></g></g><g fill="#201d1d" fill-opacity="1"><g transform="translate(187.495289, 174.839057)"><g><path d="M 31 -97.761719 L 18.910156 -84.898438 C 28.300781 -78.335938 44.378906 -64.316406 51.066406 -57.113281 L 64.1875 -70.621094 C 56.726562 -78.335938 40.003906 -91.714844 31 -97.761719 Z M 14.921875 -12.089844 L 25.726562 4.886719 C 43.863281 1.800781 60.457031 -5.402344 73.449219 -13.25 C 94.160156 -25.726562 111.269531 -43.476562 121.042969 -60.84375 L 111.011719 -78.980469 C 102.90625 -61.617188 86.054688 -41.933594 64.1875 -28.941406 C 51.710938 -21.480469 34.988281 -14.921875 14.921875 -12.089844 Z M 14.921875 -12.089844 "/></g></g></g><g fill="#ff0000" fill-opacity="1"><g transform="translate(61.277786, 302.859858)"><g><path d="M 91.328125 -82.582031 C 95.832031 -82.582031 100.71875 -82.324219 105.222656 -82.066406 L 105.222656 -98.660156 C 100.847656 -98.019531 95.703125 -97.761719 91.328125 -97.761719 L 39.617188 -97.761719 C 35.375 -97.761719 30.101562 -98.019531 25.984375 -98.660156 L 25.984375 -82.066406 C 29.84375 -82.324219 35.246094 -82.582031 39.746094 -82.582031 Z M 23.28125 -64.960938 C 19.296875 -64.960938 14.792969 -65.34375 10.933594 -65.730469 L 10.933594 -48.878906 C 14.535156 -49.136719 19.550781 -49.394531 23.28125 -49.394531 L 58.65625 -49.394531 C 58.140625 -38.589844 55.957031 -28.941406 50.679688 -20.96875 C 45.535156 -13.507812 36.53125 -6.046875 27.398438 -2.574219 L 42.449219 8.359375 C 53.898438 2.574219 63.800781 -7.460938 68.304688 -16.335938 C 72.933594 -25.339844 75.765625 -36.144531 76.535156 -49.394531 L 107.539062 -49.394531 C 111.140625 -49.394531 116.027344 -49.265625 119.242188 -49.007812 L 119.242188 -65.730469 C 115.769531 -65.21875 110.238281 -64.960938 107.539062 -64.960938 Z M 23.28125 -64.960938 "/></g></g></g><g fill="#ff0000" fill-opacity="1"><g transform="translate(189.907282, 302.859858)"><g><path d="M 91.84375 -80.652344 C 85.414062 -72.292969 71.90625 -61.617188 58.785156 -53.898438 C 48.625 -47.980469 29.972656 -40.003906 13.378906 -36.53125 L 21.996094 -21.609375 C 32.800781 -24.570312 46.949219 -30.230469 58.269531 -35.632812 L 58.269531 -2.574219 C 58.269531 1.929688 58.011719 8.746094 57.628906 11.320312 L 76.664062 11.320312 C 75.894531 8.746094 75.765625 1.929688 75.765625 -2.574219 L 75.765625 -45.40625 C 87.46875 -52.996094 98.660156 -62 104.707031 -68.691406 Z M 91.84375 -80.652344 "/></g></g></g><g fill="#00ffff" fill-opacity="1"><g transform="translate(56.453799, 302.859858)"><g><path d="M 91.328125 -82.582031 C 95.832031 -82.582031 100.71875 -82.324219 105.222656 -82.066406 L 105.222656 -98.660156 C 100.847656 -98.019531 95.703125 -97.761719 91.328125 -97.761719 L 39.617188 -97.761719 C 35.375 -97.761719 30.101562 -98.019531 25.984375 -98.660156 L 25.984375 -82.066406 C 29.84375 -82.324219 35.246094 -82.582031 39.746094 -82.582031 Z M 23.28125 -64.960938 C 19.296875 -64.960938 14.792969 -65.34375 10.933594 -65.730469 L 10.933594 -48.878906 C 14.535156 -49.136719 19.550781 -49.394531 23.28125 -49.394531 L 58.65625 -49.394531 C 58.140625 -38.589844 55.957031 -28.941406 50.679688 -20.96875 C 45.535156 -13.507812 36.53125 -6.046875 27.398438 -2.574219 L 42.449219 8.359375 C 53.898438 2.574219 63.800781 -7.460938 68.304688 -16.335938 C 72.933594 -25.339844 75.765625 -36.144531 76.535156 -49.394531 L 107.539062 -49.394531 C 111.140625 -49.394531 116.027344 -49.265625 119.242188 -49.007812 L 119.242188 -65.730469 C 115.769531 -65.21875 110.238281 -64.960938 107.539062 -64.960938 Z M 23.28125 -64.960938 "/></g></g></g><g fill="#00ffff" fill-opacity="1"><g transform="translate(185.083295, 302.859858)"><g><path d="M 91.84375 -80.652344 C 85.414062 -72.292969 71.90625 -61.617188 58.785156 -53.898438 C 48.625 -47.980469 29.972656 -40.003906 13.378906 -36.53125 L 21.996094 -21.609375 C 32.800781 -24.570312 46.949219 -30.230469 58.269531 -35.632812 L 58.269531 -2.574219 C 58.269531 1.929688 58.011719 8.746094 57.628906 11.320312 L 76.664062 11.320312 C 75.894531 8.746094 75.765625 1.929688 75.765625 -2.574219 L 75.765625 -45.40625 C 87.46875 -52.996094 98.660156 -62 104.707031 -68.691406 Z M 91.84375 -80.652344 "/></g></g></g><g fill="#201d1d" fill-opacity="1"><g transform="translate(58.865792, 302.859858)"><g><path d="M 91.328125 -82.582031 C 95.832031 -82.582031 100.71875 -82.324219 105.222656 -82.066406 L 105.222656 -98.660156 C 100.847656 -98.019531 95.703125 -97.761719 91.328125 -97.761719 L 39.617188 -97.761719 C 35.375 -97.761719 30.101562 -98.019531 25.984375 -98.660156 L 25.984375 -82.066406 C 29.84375 -82.324219 35.246094 -82.582031 39.746094 -82.582031 Z M 23.28125 -64.960938 C 19.296875 -64.960938 14.792969 -65.34375 10.933594 -65.730469 L 10.933594 -48.878906 C 14.535156 -49.136719 19.550781 -49.394531 23.28125 -49.394531 L 58.65625 -49.394531 C 58.140625 -38.589844 55.957031 -28.941406 50.679688 -20.96875 C 45.535156 -13.507812 36.53125 -6.046875 27.398438 -2.574219 L 42.449219 8.359375 C 53.898438 2.574219 63.800781 -7.460938 68.304688 -16.335938 C 72.933594 -25.339844 75.765625 -36.144531 76.535156 -49.394531 L 107.539062 -49.394531 C 111.140625 -49.394531 116.027344 -49.265625 119.242188 -49.007812 L 119.242188 -65.730469 C 115.769531 -65.21875 110.238281 -64.960938 107.539062 -64.960938 Z M 23.28125 -64.960938 "/></g></g></g><g fill="#201d1d" fill-opacity="1"><g transform="translate(187.495289, 302.859858)"><g><path d="M 91.84375 -80.652344 C 85.414062 -72.292969 71.90625 -61.617188 58.785156 -53.898438 C 48.625 -47.980469 29.972656 -40.003906 13.378906 -36.53125 L 21.996094 -21.609375 C 32.800781 -24.570312 46.949219 -30.230469 58.269531 -35.632812 L 58.269531 -2.574219 C 58.269531 1.929688 58.011719 8.746094 57.628906 11.320312 L 76.664062 11.320312 C 75.894531 8.746094 75.765625 1.929688 75.765625 -2.574219 L 75.765625 -45.40625 C 87.46875 -52.996094 98.660156 -62 104.707031 -68.691406 Z M 91.84375 -80.652344 "/></g></g></g></svg>